<svg width="88" height="88" fill="none" xmlns="http://www.w3.org/2000/svg"><g filter="url(#a)"><circle cx="44" cy="44" r="44" fill="#4F1181"/></g><g fill-rule="evenodd" clip-rule="evenodd"><path d="M34.82 48a3.89 3.89 0 0 1-3.97-4c0-2.28 1.7-4 3.97-4a3.73 3.73 0 0 1 3.77 3.25h-2.08a1.77 1.77 0 0 0-1.69-1.29c-1.05 0-1.83.87-1.83 2.05 0 1.17.78 2.03 1.83 2.03.83 0 1.48-.56 1.7-1.4h2.1c-.29 2-1.81 3.36-3.8 3.36Zm-9.62-.2.42-1.23h2.64l.41 1.24h2.27l-3-7.62h-2L23 47.81h2.2Zm2.56-2.87h-1.64l.82-2.36.82 2.36ZM43.11 48a3.75 3.75 0 0 0 3.8-3.36h-2.1c-.22.84-.87 1.4-1.7 1.4-1.05 0-1.83-.86-1.83-2.03 0-1.18.78-2.05 1.84-2.05.78 0 1.43.5 1.68 1.29h2.09A3.73 3.73 0 0 0 43.1 40a3.9 3.9 0 0 0-3.97 4c0 2.28 1.7 4 3.97 4Zm8.43 0c-2.4 0-4.1-1.67-4.1-4s1.7-4 4.1-4c2.4 0 4.1 1.67 4.1 4s-1.7 4-4.1 4Zm0-1.95c-1.13 0-1.97-.86-1.97-2.05s.84-2.05 1.97-2.05c1.14 0 1.96.86 1.96 2.05 0 1.2-.82 2.05-1.96 2.05Zm11.53-1.19c0 1.88-1.36 3.14-3.26 3.14-1.9 0-3.26-1.26-3.26-3.14V40.2h2.1v4.63c0 .75.47 1.23 1.16 1.23.68 0 1.15-.48 1.15-1.23V40.2h2.1v4.67Zm3.29 2.95v-4.14l2.96 4.14h1.7v-7.62h-1.99v4l-2.86-4h-1.8v7.62h1.99Zm9.61-5.73v5.73h-2.06v-5.73h-2.03V40.2H78v1.9h-2.03Z" fill="#fff"/><path d="M17.42 47.95 13.71 40 10 47.95h7.42Z" fill="url(#b)"/><path d="M20.91 47.95 17.21 40l-3.72 7.95h7.42Z" fill="url(#c)"/></g><defs><linearGradient id="b" x1="6.29" y1="43.98" x2="14.22" y2="51.38" gradientUnits="userSpaceOnUse"><stop stop-color="#5141E2"/><stop offset="1" stop-color="#DE39FF"/></linearGradient><linearGradient id="c" x1="9.78" y1="43.98" x2="17.72" y2="51.38" gradientUnits="userSpaceOnUse"><stop stop-color="#5141E2"/><stop offset="1" stop-color="#DE39FF" stop-opacity=".01"/></linearGradient><filter id="a" x="0" y="0" width="88" height="88" filterUnits="userSpaceOnUse" color-interpolation-filters="sRGB"><feFlood flood-opacity="0" result="BackgroundImageFix"/><feBlend in="SourceGraphic" in2="BackgroundImageFix" result="shape"/><feColorMatrix in="SourceAlpha" values="0 0 0 0 0 0 0 0 0 0 0 0 0 0 0 0 0 0 127 0" result="hardAlpha"/><feOffset/><feGaussianBlur stdDeviation="17.5"/><feComposite in2="hardAlpha" operator="arithmetic" k2="-1" k3="1"/><feColorMatrix values="0 0 0 0 0 0 0 0 0 0 0 0 0 0 0 0 0 0 0.0452633 0"/><feBlend in2="shape" result="effect1_innerShadow_0_996"/></filter></defs></svg>