<svg width="88" height="88" fill="none" xmlns="http://www.w3.org/2000/svg"><g filter="url(#a)"><circle cx="44" cy="44" r="44" fill="#1A7373"/></g><path fill-rule="evenodd" clip-rule="evenodd" d="M44.5 57a15 15 0 1 0 0-25.99C42.3 29.73 39.73 29 37 29v2.73c1.79 0 3.49.38 5.02 1.07A14.96 14.96 0 0 0 37 44c0 4.45 1.94 8.45 5.02 11.2A12.27 12.27 0 0 1 24.72 44H22a15 15 0 0 0 22.5 13Zm2.48-1.8a12.27 12.27 0 1 0 0-22.4A14.96 14.96 0 0 1 52 44c0 4.45-1.94 8.45-5.02 11.2Zm-2.48-1.48a12.25 12.25 0 0 0 0-19.44 12.25 12.25 0 0 0 0 19.44Z" fill="#fff"/><defs><filter id="a" x="0" y="0" width="88" height="88" filterUnits="userSpaceOnUse" color-interpolation-filters="sRGB"><feFlood flood-opacity="0" result="BackgroundImageFix"/><feBlend in="SourceGraphic" in2="BackgroundImageFix" result="shape"/><feColorMatrix in="SourceAlpha" values="0 0 0 0 0 0 0 0 0 0 0 0 0 0 0 0 0 0 127 0" result="hardAlpha"/><feOffset/><feGaussianBlur stdDeviation="17.5"/><feComposite in2="hardAlpha" operator="arithmetic" k2="-1" k3="1"/><feColorMatrix values="0 0 0 0 0 0 0 0 0 0 0 0 0 0 0 0 0 0 0.0452633 0"/><feBlend in2="shape" result="effect1_innerShadow_0_1192"/></filter></defs></svg>