<svg width="88" height="88" fill="none" xmlns="http://www.w3.org/2000/svg"><g filter="url(#a)"><circle cx="44" cy="44" r="44" fill="url(#b)"/></g><path fill-rule="evenodd" clip-rule="evenodd" d="m71.53 43.47.08.6 1.01 4.56H74L71.8 39l-2.64 5.82-.1.26c-.2.4-.33.74-.42 1a66 66 0 0 0-.5-1.25L65.44 39l-2.15 9.63h1.37l.97-4.55a6.59 6.59 0 0 0 .17-1.28 7.4 7.4 0 0 0 .45 1.18L68.64 49l2.39-4.92a5.42 5.42 0 0 0 .41-1.28l.1.67Zm-12.06 5.16-1.04-2.38h-3.61l-1.06 2.38H52.2l4.42-9.6 4.41 9.6h-1.56Zm-10.15-7a4.05 4.05 0 0 0-2.8-1.09c-1 .01-1.81.34-2.44.98a3.47 3.47 0 0 0-.94 2.52c0 1 .3 1.82.92 2.47.6.65 1.37.97 2.3.97.54 0 1.05-.1 1.54-.3.49-.18.96-.48 1.4-.87v1.7c-.4.29-.83.5-1.3.65-.47.14-.97.21-1.52.21-.7 0-1.35-.11-1.94-.34a4.49 4.49 0 0 1-2.59-2.59A5.12 5.12 0 0 1 43 40.55c.46-.45.97-.8 1.56-1.03a5.09 5.09 0 0 1 4.85.6l-.08 1.52Zm-35.32 7v-9.24h5.1v1.28h-3.62v2.31h3.61v1.32h-3.6v2.98h3.6v1.35H14Zm11.04 0V44.4l-3.08-5h1.56l1.92 3.13a10.41 10.41 0 0 1 .38.73 5.54 5.54 0 0 1 .38-.77l1.97-3.1h1.48l-3.14 5.01v4.23h-1.47Zm7.88-9.24v9.24h5.1v-1.35H34.4V44.3h3.61v-1.32h-3.6v-2.31H38v-1.28h-5.09ZM57.91 45h-2.55l.94-2.1a7.85 7.85 0 0 0 .33-1.05 10.86 10.86 0 0 0 .34 1.04l.94 2.11Z" fill="#fff"/><defs><linearGradient id="b" x1=".86" y1="0" x2=".86" y2="86.28" gradientUnits="userSpaceOnUse"><stop stop-color="#43E2DF"/><stop offset="1" stop-color="#156A8D"/></linearGradient><filter id="a" x="0" y="0" width="88" height="88" filterUnits="userSpaceOnUse" color-interpolation-filters="sRGB"><feFlood flood-opacity="0" result="BackgroundImageFix"/><feBlend in="SourceGraphic" in2="BackgroundImageFix" result="shape"/><feColorMatrix in="SourceAlpha" values="0 0 0 0 0 0 0 0 0 0 0 0 0 0 0 0 0 0 127 0" result="hardAlpha"/><feOffset/><feGaussianBlur stdDeviation="17.5"/><feComposite in2="hardAlpha" operator="arithmetic" k2="-1" k3="1"/><feColorMatrix values="0 0 0 0 0 0 0 0 0 0 0 0 0 0 0 0 0 0 0.0452633 0"/><feBlend in2="shape" result="effect1_innerShadow_0_1310"/></filter></defs></svg>