<svg width="88" height="88" fill="none" xmlns="http://www.w3.org/2000/svg"><g filter="url(#a)"><circle cx="44" cy="44" r="44" fill="#403646"/></g><path fill-rule="evenodd" clip-rule="evenodd" d="M33.03 46.75c-.33-.14-.65-.3-.97-.48l-.95 1.44a9.1 9.1 0 0 0 2.33.93 10.93 10.93 0 0 0 4.87.15 5.1 5.1 0 0 0 1.57-.62c.44-.27.77-.6 1-1 .24-.39.36-.84.36-1.34 0-.38-.07-.72-.2-1.03a2.1 2.1 0 0 0-.62-.78 2.9 2.9 0 0 0-1.01-.5c-.4-.1-.86-.17-1.38-.17a36.58 36.58 0 0 0-1.7.13l-.42.06-.4.04c-.25.03-.47.04-.67.04a1.9 1.9 0 0 1-1.08-.25.75.75 0 0 1-.36-.64c0-.13.04-.27.11-.4a1 1 0 0 1 .4-.38c.18-.1.44-.2.76-.27a8.7 8.7 0 0 1 3.2.11 9.51 9.51 0 0 1 1.7.54l.78-1.43a9.08 9.08 0 0 0-2.06-.65 12.14 12.14 0 0 0-2.36-.25c-.55 0-1.03.04-1.46.12-.43.07-.8.18-1.13.31-.33.14-.6.3-.83.48-.23.19-.42.39-.57.6a2.33 2.33 0 0 0-.41 1.39 2.17 2.17 0 0 0 .92 1.82c.28.2.6.35.96.45.37.1.74.15 1.14.15.24 0 .49-.01.76-.05l.82-.1.41-.05.41-.05c.27-.04.53-.05.77-.05.56 0 .97.1 1.24.28.27.18.4.43.4.75a1 1 0 0 1-.16.55c-.1.17-.28.31-.51.43-.24.13-.54.22-.92.3a9.37 9.37 0 0 1-3.72-.2c-.35-.11-.69-.23-1.02-.38ZM16 40.11h1.8v8.77H16V40.1Zm4.07 0h1.8l5.5 2.86v-2.86h1.78v8.77h-1.79v-4.02L21.86 42v6.87h-1.79V40.1Zm22.8 0h1.8v4.83c0 .4.05.75.16 1.06a2.03 2.03 0 0 0 1.3 1.26c.32.11.69.17 1.11.17.43 0 .8-.06 1.12-.17a2.03 2.03 0 0 0 1.3-1.27c.1-.3.16-.65.16-1.05v-4.83h1.79v5.04c0 .58-.1 1.1-.3 1.57-.19.47-.47.88-.85 1.21-.37.34-.83.6-1.37.78-.54.19-1.15.28-1.85.28-.69 0-1.3-.1-1.85-.28-.54-.18-1-.44-1.36-.78a3.33 3.33 0 0 1-.86-1.2c-.2-.48-.3-1-.3-1.58v-5.04Zm15.4 0H53.8v8.77h1.79v-2.5h2.76l1.66 2.5h2.2l-1.93-2.8c.34-.13.63-.3.88-.49a2.77 2.77 0 0 0 .98-1.47A3.56 3.56 0 0 0 62 41.9c-.16-.38-.4-.7-.73-.97a3.4 3.4 0 0 0-1.24-.6 6.53 6.53 0 0 0-1.76-.22Zm.05 4.73c.34 0 .64-.03.9-.11.25-.08.46-.2.63-.33.17-.15.3-.32.38-.52.09-.2.13-.43.13-.68 0-.5-.17-.87-.5-1.14-.35-.27-.86-.4-1.54-.4h-2.74v3.18h2.74Zm13.56-4.73h-7.51v8.77H72v-1.56h-5.84v-2.44h5.07v-1.46h-5.07v-1.75h5.72v-1.56Z" fill="#F3D3CA"/><defs><filter id="a" x="0" y="0" width="88" height="88" filterUnits="userSpaceOnUse" color-interpolation-filters="sRGB"><feFlood flood-opacity="0" result="BackgroundImageFix"/><feBlend in="SourceGraphic" in2="BackgroundImageFix" result="shape"/><feColorMatrix in="SourceAlpha" values="0 0 0 0 0 0 0 0 0 0 0 0 0 0 0 0 0 0 127 0" result="hardAlpha"/><feOffset/><feGaussianBlur stdDeviation="17.5"/><feComposite in2="hardAlpha" operator="arithmetic" k2="-1" k3="1"/><feColorMatrix values="0 0 0 0 0 0 0 0 0 0 0 0 0 0 0 0 0 0 0.0452633 0"/><feBlend in2="shape" result="effect1_innerShadow_0_1337"/></filter></defs></svg>