<svg width="88" height="88" fill="none" xmlns="http://www.w3.org/2000/svg"><g filter="url(#a)"><circle cx="44" cy="44" r="44" fill="#8D1558"/></g><path fill-rule="evenodd" clip-rule="evenodd" d="M14.41 43.85c.78 0 1.41-.63 1.41-1.42V31.42a1.41 1.41 0 1 0-2.82 0v11.01c0 .79.63 1.42 1.41 1.42Zm8.12.12c3.1 0 5.4-2.34 5.4-5.21v-.04a5.19 5.19 0 0 0-5.36-5.17c-3.1 0-5.4 2.33-5.4 5.2v.04a5.19 5.19 0 0 0 5.36 5.18Zm-2.58-5.21c0 1.47 1.06 2.76 2.62 2.76 1.61 0 2.58-1.25 2.58-2.73v-.03c0-1.48-1.06-2.77-2.62-2.77-1.61 0-2.58 1.25-2.58 2.73v.04Zm14.08 5.2c3.1 0 5.4-2.33 5.4-5.2v-.04a5.19 5.19 0 0 0-5.36-5.17c-3.1 0-5.4 2.33-5.4 5.2v.04a5.19 5.19 0 0 0 5.36 5.18Zm-2.58-5.2c0 1.47 1.06 2.76 2.62 2.76 1.61 0 2.58-1.25 2.58-2.73v-.03c0-1.48-1.06-2.77-2.62-2.77-1.61 0-2.58 1.25-2.58 2.73v.04Zm10.61 8.08c.78 0 1.41-.63 1.41-1.42v-2.99c.67.8 1.6 1.5 3.1 1.5 2.36 0 4.53-1.83 4.53-5.17v-.04c0-3.34-2.2-5.17-4.53-5.17-1.47 0-2.41.69-3.1 1.62v-.13a1.41 1.41 0 1 0-2.82 0v10.38c0 .79.63 1.42 1.41 1.42Zm1.37-8.08c0 1.66 1.1 2.76 2.42 2.76 1.32 0 2.43-1.08 2.43-2.76v-.04c0-1.66-1.11-2.76-2.43-2.76s-2.42 1.1-2.42 2.76v.04ZM17.3 57.96c2.15 0 3.8-1 3.8-3.23v-.03c0-1.83-1.61-2.5-3-2.97l-.32-.11c-.94-.32-1.7-.58-1.7-1.09v-.04c0-.39.35-.69 1.03-.69.6 0 1.36.25 2.16.64.18.1.31.13.52.13.63 0 1.13-.49 1.13-1.12 0-.49-.26-.86-.67-1.07a6.97 6.97 0 0 0-3.08-.76c-2 0-3.64 1.14-3.64 3.17v.04c0 1.94 1.58 2.6 2.97 3l.38.12c.93.28 1.68.5 1.68 1.04v.04c0 .45-.37.75-1.19.75-.8 0-1.74-.3-2.69-.9-.15-.1-.35-.15-.56-.15A1.1 1.1 0 0 0 13 55.85c0 .45.24.79.54.97a6.9 6.9 0 0 0 3.75 1.14Zm9.8-.3c-.53.2-1.01.28-1.62.28-1.73 0-2.9-.69-2.9-3V50.2h-.1a1.2 1.2 0 0 1-1.2-1.22c0-.67.54-1.21 1.2-1.21h.1v-1.25a1.41 1.41 0 1 1 2.82 0v1.25h1.25c.66 0 1.2.54 1.2 1.21a1.2 1.2 0 0 1-1.2 1.22h-1.25v4.27c0 .65.28.97.91.97h.2l.14-.02c.63 0 1.16.53 1.16 1.18 0 .5-.33.91-.72 1.06Zm5.2.3c1.43 0 2.26-.76 2.91-1.6v.1a1.41 1.41 0 1 0 2.82 0v-7.38a1.41 1.41 0 1 0-2.82 0v4.27c0 1.35-.69 2.04-1.76 2.04-1.08 0-1.71-.7-1.71-2.04v-4.27a1.41 1.41 0 1 0-2.82 0v5.17c0 2.3 1.24 3.71 3.38 3.71Zm14.62-1.62a3.65 3.65 0 0 1-3.1 1.62c-2.33 0-4.54-1.83-4.54-5.17v-.04c0-3.34 2.18-5.17 4.53-5.17 1.5 0 2.44.7 3.1 1.5v-3.63a1.41 1.41 0 1 1 2.83 0v11.02a1.41 1.41 0 1 1-2.82 0v-.13Zm-2.38-.79c-1.32 0-2.43-1.1-2.43-2.76v-.04c0-1.68 1.11-2.76 2.43-2.76s2.41 1.1 2.41 2.76v.04c0 1.66-1.1 2.76-2.41 2.76Zm10.01-10.13c0 .82-.68 1.34-1.57 1.34-.9 0-1.58-.52-1.58-1.34v-.04c0-.82.68-1.33 1.58-1.33.89 0 1.57.5 1.57 1.33v.04Zm-1.57 12.47c.78 0 1.4-.64 1.4-1.42v-7.4a1.41 1.41 0 1 0-2.82 0v7.4c0 .78.64 1.42 1.42 1.42Zm13.52-5.1c0 2.88-2.3 5.21-5.4 5.21a5.19 5.19 0 0 1-5.37-5.17v-.04c0-2.87 2.3-5.2 5.4-5.2 3.09 0 5.37 2.29 5.37 5.16v.04Zm-5.37 2.76c-1.56 0-2.61-1.28-2.61-2.76v-.04c0-1.47.96-2.72 2.58-2.72 1.56 0 2.61 1.29 2.61 2.76v.04c0 1.47-.96 2.72-2.58 2.72ZM75 54.73c0 2.22-1.65 3.23-3.8 3.23a6.9 6.9 0 0 1-3.76-1.14c-.3-.18-.54-.52-.54-.97 0-.63.49-1.12 1.12-1.12.2 0 .4.06.56.15.94.6 1.89.9 2.69.9.81 0 1.19-.3 1.19-.75V55c0-.54-.76-.76-1.69-1.04l-.37-.11c-1.4-.41-2.98-1.07-2.98-3.01v-.04c0-2.03 1.64-3.17 3.64-3.17 1.04 0 2.12.28 3.09.76.4.21.66.58.66 1.07 0 .63-.5 1.12-1.13 1.12-.2 0-.33-.04-.52-.13-.8-.4-1.56-.64-2.15-.64-.69 0-1.04.3-1.04.7v.03c0 .5.77.77 1.7 1.09l.32.1c1.4.47 3.01 1.15 3.01 2.98v.03Z" fill="#fff"/><defs><filter id="a" x="0" y="0" width="88" height="88" filterUnits="userSpaceOnUse" color-interpolation-filters="sRGB"><feFlood flood-opacity="0" result="BackgroundImageFix"/><feBlend in="SourceGraphic" in2="BackgroundImageFix" result="shape"/><feColorMatrix in="SourceAlpha" values="0 0 0 0 0 0 0 0 0 0 0 0 0 0 0 0 0 0 127 0" result="hardAlpha"/><feOffset/><feGaussianBlur stdDeviation="17.5"/><feComposite in2="hardAlpha" operator="arithmetic" k2="-1" k3="1"/><feColorMatrix values="0 0 0 0 0 0 0 0 0 0 0 0 0 0 0 0 0 0 0.0452633 0"/><feBlend in2="shape" result="effect1_innerShadow_0_1119"/></filter></defs></svg>