<svg width="88" height="88" fill="none" xmlns="http://www.w3.org/2000/svg"><g filter="url(#a)"><circle cx="44" cy="44" r="44" fill="#F3603C"/></g><path fill-rule="evenodd" clip-rule="evenodd" d="M62.86 48.9c.5 0 .95-.07 1.35-.18.4-.12.73-.28 1-.5.27-.2.5-.46.67-.76.18-.3.31-.64.39-1 .08-.35.12-.75.12-1.17V39.1h-1.6v.72h-.02a3.22 3.22 0 0 0-2.15-.83c-.63 0-1.2.15-1.7.45-.51.3-.9.71-1.18 1.24a3.78 3.78 0 0 0-.42 1.8c0 .66.14 1.26.44 1.78s.7.91 1.2 1.2c.52.27 1.1.41 1.74.41a2.8 2.8 0 0 0 2.1-.84h.03v.73c0 .49-.18.9-.54 1.21-.36.32-.87.49-1.52.49-.45 0-.85-.06-1.19-.17a7.62 7.62 0 0 1-1.17-.52l-.38 1.4c.4.22.83.4 1.31.53.49.12 1 .18 1.52.18ZM29.8 42.55V46h-1.6v-3.59c0-1.31-.45-1.97-1.37-1.97-.49 0-.89.19-1.2.57-.31.38-.47.9-.47 1.55V46h-1.59V39.1h1.6v.95h.01c.29-.34.61-.6 1-.78.37-.18.76-.27 1.17-.27.96 0 1.65.38 2.06 1.14h.03c.3-.37.65-.65 1.08-.85.42-.2.9-.3 1.4-.3.79 0 1.39.26 1.8.75.43.5.64 1.26.64 2.26v4h-1.59v-3.6c0-1.31-.45-1.97-1.36-1.97-.46 0-.85.19-1.15.57-.31.38-.46.9-.46 1.55Zm11.06 2.51a2.62 2.62 0 0 1-2.2 1.04c-.48 0-.92-.09-1.34-.25a3.09 3.09 0 0 1-1.76-1.83 3.97 3.97 0 0 1-.26-1.45c0-.5.09-.98.26-1.43a3.2 3.2 0 0 1 3.09-2.14c.9 0 1.61.3 2.14.93h.03v-.83h1.58V46H40.9v-.93h-.03Zm-1.95-.4a1.9 1.9 0 0 1-1.44-.58 2.09 2.09 0 0 1-.55-1.5c0-.65.19-1.17.57-1.56.38-.4.86-.59 1.42-.59.57 0 1.04.2 1.41.62.37.4.56.92.56 1.53s-.2 1.11-.57 1.5c-.39.39-.85.58-1.4.58Zm11.39-2.73V46h-1.6v-3.65c0-.36-.03-.66-.09-.91a1.35 1.35 0 0 0-.3-.59 1.18 1.18 0 0 0-.47-.31 1.9 1.9 0 0 0-.64-.1c-.54 0-.98.18-1.3.55-.33.37-.5.88-.5 1.55V46h-1.58V39.1h1.59v.94h.02A3.12 3.12 0 0 1 47.76 39c.8 0 1.42.25 1.87.73.45.48.68 1.22.68 2.21Zm4.29 4.17c.94 0 1.68-.35 2.2-1.04h.02V46h1.52V39.1h-1.59v.83h-.02a2.67 2.67 0 0 0-2.15-.93 3.28 3.28 0 0 0-3.08 2.14c-.17.45-.26.92-.26 1.43 0 .53.09 1.01.26 1.45a3.09 3.09 0 0 0 1.77 1.82c.4.17.85.26 1.33.26Zm-1.19-2.02c.37.39.85.58 1.44.58.55 0 1.01-.2 1.4-.58.38-.39.57-.89.57-1.5a2.2 2.2 0 0 0-.56-1.53 1.81 1.81 0 0 0-1.4-.62c-.58 0-1.05.2-1.43.59-.38.4-.57.91-.57 1.56 0 .61.18 1.11.55 1.5Zm8.08-.2c.37.35.85.54 1.42.54.58 0 1.05-.2 1.41-.57a2 2 0 0 0 .55-1.45 1.89 1.89 0 0 0-1.96-1.96c-.59 0-1.06.19-1.43.56-.36.36-.55.84-.55 1.42 0 .6.19 1.1.56 1.45Zm9.44 2.22c.64 0 1.21-.12 1.7-.35.5-.24.9-.56 1.22-.96l-1.11-.94a2.1 2.1 0 0 1-1.73.81c-.5 0-.94-.14-1.3-.42a1.91 1.91 0 0 1-.68-1.15h5.05a3.8 3.8 0 0 0-.37-2.41 3 3 0 0 0-1.17-1.23c-.52-.3-1.1-.45-1.78-.45-.48 0-.92.08-1.34.26a3.18 3.18 0 0 0-1.78 1.84c-.17.44-.26.92-.26 1.44 0 .7.16 1.33.47 1.87.3.55.73.96 1.27 1.25.53.3 1.14.44 1.8.44Zm-1.87-4.28h3.47c-.1-.43-.3-.77-.59-1.02a1.63 1.63 0 0 0-1.1-.37c-.44 0-.81.12-1.13.36-.32.24-.54.59-.65 1.03Z" fill="#fff"/><g fill="#fff"><path fill-rule="evenodd" clip-rule="evenodd" d="M15.34 40.19c0 .66-.52 1.2-1.17 1.2-.65 0-1.17-.54-1.17-1.2 0-.66.52-1.19 1.17-1.19.65 0 1.17.53 1.17 1.2Zm0 4.29c0 .65-.52 1.19-1.17 1.19-.65 0-1.17-.54-1.17-1.2 0-.65.52-1.18 1.17-1.18.65 0 1.17.53 1.17 1.19Zm3.04-3.1c.65 0 1.17-.53 1.17-1.19 0-.66-.52-1.19-1.17-1.19-.64 0-1.17.53-1.17 1.2 0 .65.53 1.18 1.17 1.18Z"/><ellipse opacity=".5" cx="18.38" cy="44.52" rx="1.17" ry="1.19"/></g><defs><filter id="a" x="0" y="0" width="88" height="88" filterUnits="userSpaceOnUse" color-interpolation-filters="sRGB"><feFlood flood-opacity="0" result="BackgroundImageFix"/><feBlend in="SourceGraphic" in2="BackgroundImageFix" result="shape"/><feColorMatrix in="SourceAlpha" values="0 0 0 0 0 0 0 0 0 0 0 0 0 0 0 0 0 0 127 0" result="hardAlpha"/><feOffset/><feGaussianBlur stdDeviation="17.5"/><feComposite in2="hardAlpha" operator="arithmetic" k2="-1" k3="1"/><feColorMatrix values="0 0 0 0 0 0 0 0 0 0 0 0 0 0 0 0 0 0 0.0452633 0"/><feBlend in2="shape" result="effect1_innerShadow_0_933"/></filter></defs></svg>