<svg width="88" height="88" fill="none" xmlns="http://www.w3.org/2000/svg"><g filter="url(#a)"><circle cx="44" cy="44" r="44" fill="#68A4A4"/></g><circle opacity=".25" r="24" transform="matrix(-1 0 0 1 45 44)" fill="url(#b)"/><path fill-rule="evenodd" clip-rule="evenodd" d="M50.12 47c1.77 0 3.19-1.35 3.19-3 0-1.66-1.42-3-3.2-3-1.77 0-3.18 1.34-3.18 3 0 1.65 1.41 3 3.19 3Zm-40.74-.11v-3.35l1.68 2.62h.21l1.68-2.62v3.35h1.39V41.1h-1.39l-1.78 2.72-1.79-2.72H8v5.79h1.38Zm15.69 0v-1.95l2.14-3.84h-1.47l-1.36 2.51-1.36-2.51h-1.47l2.14 3.84v1.95h1.38Zm10.74-2.01v2.01h-1.38V41.1h1.38v2.56H38V41.1h1.38v5.79H38v-2.01h-2.2ZM48.37 44c0 .96.77 1.77 1.75 1.77s1.75-.81 1.75-1.77a1.75 1.75 0 1 0-3.5 0Zm13.86 2.89v-3.35l1.68 2.62h.21l1.68-2.62v3.35h1.39V41.1H65.8l-1.78 2.72-1.79-2.72h-1.38v5.79h1.38ZM79 45.66v1.23h-4.17V41.1H79v1.23h-2.79v1.1h2.57v1.23h-2.57v1H79Z" fill="#fff"/><defs><linearGradient id="b" x1="24" y1="-24" x2="-24" y2="24" gradientUnits="userSpaceOnUse"><stop stop-color="#fff"/><stop offset="1" stop-color="#fff" stop-opacity=".01"/></linearGradient><filter id="a" x="0" y="0" width="88" height="88" filterUnits="userSpaceOnUse" color-interpolation-filters="sRGB"><feFlood flood-opacity="0" result="BackgroundImageFix"/><feBlend in="SourceGraphic" in2="BackgroundImageFix" result="shape"/><feColorMatrix in="SourceAlpha" values="0 0 0 0 0 0 0 0 0 0 0 0 0 0 0 0 0 0 127 0" result="hardAlpha"/><feOffset/><feGaussianBlur stdDeviation="17.5"/><feComposite in2="hardAlpha" operator="arithmetic" k2="-1" k3="1"/><feColorMatrix values="0 0 0 0 0 0 0 0 0 0 0 0 0 0 0 0 0 0 0.0452633 0"/><feBlend in2="shape" result="effect1_innerShadow_0_1053"/></filter></defs></svg>