<svg width="88" height="88" fill="none" xmlns="http://www.w3.org/2000/svg"><g filter="url(#a)"><circle cx="44" cy="44" r="44" fill="#000"/></g><g fill-rule="evenodd" clip-rule="evenodd"><path d="M39.08 46.76c-.38.16-.8.24-1.24.24a3.2 3.2 0 0 1-2.24-.9c-.28-.27-.5-.59-.66-.95a2.8 2.8 0 0 1 0-2.3 3.07 3.07 0 0 1 1.66-1.61c.38-.16.8-.24 1.24-.24a3.2 3.2 0 0 1 2.24.9c.28.27.5.59.67.95a2.8 2.8 0 0 1 0 2.3 3.07 3.07 0 0 1-1.67 1.61Zm-14.55-1.62v1.7H23v-5.68h2.54c.31 0 .6.05.86.15a1.94 1.94 0 0 1 1.09 1.05c.1.25.15.5.15.79a2 2 0 0 1-.58 1.42c-.19.18-.4.32-.66.42-.26.1-.55.15-.86.15h-1Zm0-1.38h.93c.18 0 .34-.06.46-.19a.58.58 0 0 0 0-.85.63.63 0 0 0-.46-.18h-.93v1.22Zm5.6 3.08v-2.2h2.07v2.2h1.53v-5.68H32.2v2.11h-2.06v-2.1H28.6v5.67h1.53Zm7.71-1.22a1.6 1.6 0 0 1-1.12-.46 1.62 1.62 0 0 1-.45-1.16 1.69 1.69 0 0 1 .45-1.16 1.6 1.6 0 0 1 2.57.51 1.69 1.69 0 0 1-.33 1.8 1.53 1.53 0 0 1-1.12.47Zm6.74-3.08v4.3h-1.53v-4.3h-1.58v-1.38h4.68v1.38h-1.57Zm5.2 4.46a3.2 3.2 0 0 0 2.24-.9c.28-.27.5-.59.67-.95a2.8 2.8 0 0 0 0-2.3 3.07 3.07 0 0 0-1.67-1.61 3.2 3.2 0 0 0-1.24-.24 3.2 3.2 0 0 0-2.24.9c-.28.27-.5.59-.66.95a2.8 2.8 0 0 0 0 2.3 3.07 3.07 0 0 0 1.66 1.61c.38.16.8.24 1.24.24Zm-.62-1.5a1.6 1.6 0 0 0 2.07-.86 1.69 1.69 0 0 0-.33-1.8 1.53 1.53 0 0 0-1.12-.46 1.6 1.6 0 0 0-1.12.46 1.63 1.63 0 0 0-.45 1.16 1.69 1.69 0 0 0 .45 1.16c.14.15.3.26.5.34Zm6.51 1.5c.36 0 .67-.05.95-.15.28-.1.52-.24.71-.4a1.75 1.75 0 0 0 .4-2.13 1.63 1.63 0 0 0-.48-.5 2.6 2.6 0 0 0-.63-.31l-.63-.22a2.8 2.8 0 0 1-.49-.2c-.13-.08-.2-.18-.2-.3 0-.13.06-.24.17-.34.11-.1.26-.15.44-.15a1 1 0 0 1 .38.07c.12.04.21.1.3.15.09.07.18.14.25.22l.89-.93a2.08 2.08 0 0 0-.48-.4 2.85 2.85 0 0 0-2.38-.26c-.26.1-.49.22-.67.39-.19.16-.33.34-.43.55-.1.22-.16.43-.16.65 0 .33.07.6.2.81.13.21.29.39.48.51.2.13.4.24.63.31l.64.21c.2.07.35.14.48.21.13.07.2.17.2.3 0 .17-.07.3-.2.43a.75.75 0 0 1-.53.18c-.18 0-.35-.03-.5-.1a2.04 2.04 0 0 1-.38-.2 2 2 0 0 1-.33-.3l-.89.93a3.28 3.28 0 0 0 1.27.82c.29.1.61.15 1 .15Zm4.68-3.32v3.16h-1.53v-5.68h1.33l2.42 3.16v-3.16h1.53v5.68h-1.32l-2.43-3.16Zm6.05 3.16.4-1.22h1.86l.4 1.22h1.66l-2.14-5.68h-1.7l-2.13 5.68h1.65Zm6.5 0v-1.7h1c.31 0 .6-.05.86-.15a1.94 1.94 0 0 0 1.09-1.05 2 2 0 0 0 .15-.8 2 2 0 0 0-.58-1.41c-.18-.18-.4-.32-.66-.42-.26-.1-.55-.15-.86-.15h-2.54v5.68h1.53Zm0-3.08h.92c.18 0 .34-.06.46-.19a.58.58 0 0 0 0-.85.63.63 0 0 0-.46-.18h-.93v1.22Zm-5.17-1.02-.52 1.67h1.05l-.53-1.67Z" fill="#fff"/><path d="m12 47 4-6 4 6h-8Z" fill="url(#b)"/></g><defs><linearGradient id="b" x1="16" y1="48.5" x2="18.47" y2="41.92" gradientUnits="userSpaceOnUse"><stop stop-color="#FFC593"/><stop offset=".52" stop-color="#BC7198"/><stop offset="1" stop-color="#5A77FF"/></linearGradient><filter id="a" x="0" y="0" width="88" height="88" filterUnits="userSpaceOnUse" color-interpolation-filters="sRGB"><feFlood flood-opacity="0" result="BackgroundImageFix"/><feBlend in="SourceGraphic" in2="BackgroundImageFix" result="shape"/><feColorMatrix in="SourceAlpha" values="0 0 0 0 0 0 0 0 0 0 0 0 0 0 0 0 0 0 127 0" result="hardAlpha"/><feOffset/><feGaussianBlur stdDeviation="17.5"/><feComposite in2="hardAlpha" operator="arithmetic" k2="-1" k3="1"/><feColorMatrix values="0 0 0 0 0 0 0 0 0 0 0 0 0 0 0 0 0 0 0.0452633 0"/><feBlend in2="shape" result="effect1_innerShadow_0_889"/></filter></defs></svg>