<svg width="88" height="88" fill="none" xmlns="http://www.w3.org/2000/svg"><g filter="url(#a)"><circle cx="44" cy="44" r="44" fill="#19ACDE"/></g><path fill-rule="evenodd" clip-rule="evenodd" d="M26.61 50.72h-3.56L25.15 39h3.57l-.74 4.13a3.92 3.92 0 0 1 3.02-1.4c2.1 0 3.06 1.5 2.64 3.81l-.93 5.18h-3.56l.86-4.73c.16-.86-.26-1.38-1.03-1.38-.8 0-1.35.52-1.51 1.38v-.02l-.86 4.75Zm-7.33-5.42c1.33.38 3.12.9 3.12 2.62 0 1.88-1.84 2.91-4.31 2.91-2.6 0-4.37-1.3-4.05-3.2h3.42c-.02.54.37.78.92.78.37 0 .67-.19.67-.43 0-.37-.6-.54-1.38-.75-1.31-.36-3.09-.84-3.09-2.7 0-1.6 1.55-2.85 3.94-2.85 2.67 0 4.1 1.44 4.04 3.2h-3.17c0-.48-.3-.76-.88-.76-.36 0-.65.14-.65.4 0 .37.63.55 1.42.78Zm24.76.13c0-2.28-1.65-3.75-4.06-3.75-3.26 0-5.7 2.28-5.7 5.41 0 2.29 1.65 3.74 4.06 3.74 3.26 0 5.7-2.23 5.7-5.4Zm-4.6-.71c-.99 0-1.5 1.1-1.5 2 0 .74.4 1.07.95 1.07.98 0 1.49-1.1 1.49-2 0-.74-.42-1.07-.95-1.07Zm8.86 2.34c.22-1.22.96-1.58 2.25-1.58h1l.67-3.76c-1.18 0-2.38.72-3.27 1.72l.3-1.65h-3.57l-1.61 8.93h3.57l.66-3.66Zm7.37 3.66c-2.13 0-3.57-.88-3.07-3.66l.41-2.34H51.9l.53-2.93h1.12l.39-2.16h3.57l-.39 2.16h1.48l-.53 2.93h-1.48l-.43 2.4c-.07.42.1.6.56.6h.85l-.54 3h-1.36Zm2.51 0h3.57L63.85 39H60.3l-2.11 11.72Zm5.62-8.93 2.25 8.49L62.93 55h3.9L75 41.79h-3.94l-2.4 4.53-.9-4.53H63.8Z" fill="#fff"/><defs><filter id="a" x="0" y="0" width="88" height="88" filterUnits="userSpaceOnUse" color-interpolation-filters="sRGB"><feFlood flood-opacity="0" result="BackgroundImageFix"/><feBlend in="SourceGraphic" in2="BackgroundImageFix" result="shape"/><feColorMatrix in="SourceAlpha" values="0 0 0 0 0 0 0 0 0 0 0 0 0 0 0 0 0 0 127 0" result="hardAlpha"/><feOffset/><feGaussianBlur stdDeviation="17.5"/><feComposite in2="hardAlpha" operator="arithmetic" k2="-1" k3="1"/><feColorMatrix values="0 0 0 0 0 0 0 0 0 0 0 0 0 0 0 0 0 0 0.0452633 0"/><feBlend in2="shape" result="effect1_innerShadow_0_1240"/></filter></defs></svg>